<svg xmlns="http://www.w3.org/2000/svg" width="63.138" height="63.138" viewBox="0 0 63.138 63.138" overflow="scroll">
    <linearGradient id="SVGID_1_" gradientUnits="userSpaceOnUse" x1="-46.654" y1=".245" x2="-46.654" y2="46.336" gradientTransform="matrix(1 0 0 -1 59.04 46.477)">
        <stop offset="0" stop-color="#e79e01"/>
        <stop offset=".379" stop-color="#fad700"/>
    </linearGradient>
    <path fill="url(#SVGID_1_)" d="M23.853 8.67c-8.236.266-10.083 5.646-9.905 9.562.321 7.05 9.982 13.483 10.821 14.042-1.101 1.39-2.699 2.689-3.863 4.237-2.304 3.064-4.528 5.973-6.178 8.804l-.542.917S.684 40.09.032 25.195C-.76 7.108 14.333 1.197 23.853.141V8.67z"/>
    <path fill="#FAD700" d="M27.016 0c-.941 0-2.004.061-3.142.188l-.052 8.494c.176-.006.381-.015.563-.016 7.844-.016 8.413 6.879 8.094 9.443-1 8.042-10.62 16.193-13.604 20.505-7.87 9.289-6.576 15.993-2 20.5C29.051 71.3 58.327 54.093 58.327 30.466S35.838 0 27.016 0z"/>
    <linearGradient id="SVGID_2_" gradientUnits="userSpaceOnUse" x1="-29.887" y1="-16.615" x2="-29.887" y2="46.477" gradientTransform="matrix(1 0 0 -1 59.04 46.477)">
        <stop offset=".012" stop-color="#ffde3e"/>
        <stop offset=".312" stop-color="#fad700"/>
        <stop offset="1" stop-color="#e79e01"/>
    </linearGradient>
    <path fill="url(#SVGID_2_)" d="M27.016 0c-.941 0-2.025.014-3.162.141v7.181c7.813-.016 10.844 5.057 9.719 11.266-1.626 8.971-11.318 16-14.302 20.313-7.87 9.289-6.993 15.66-2.417 20.167 12.177 12.186 41.453-5.021 41.453-28.648C58.307 6.792 35.838 0 27.016 0zm-3.163.141C12.499 1.298-1.584 8.9.145 26.692c0 0 4.958-18.208 23.708-19.37 0 0-.02-7.094 0-7.181z"/>
</svg>